<svg id="Capa_1" data-name="Capa 1" xmlns="http://www.w3.org/2000/svg" viewBox="0 0 156.32 99.12"><defs><style>.cls-1{fill:#0d0d0d;}.cls-2{fill:#040404;}.cls-3{fill:#fefefe;}</style></defs><path class="cls-1" d="M99.71,138.85c-22.49,0-45,0-67.47,0-2.24,0-3-.44-3-2.88.09-25.86.05-51.72.07-77.57,0-5.32,2.65-8,7.91-8q62.83,0,125.67,0,7.89,0,7.9,8c0,25.85,0,51.71.06,77.57,0,2.47-.85,2.87-3.06,2.86C145.07,138.82,122.39,138.85,99.71,138.85Zm.31-5h60.43c4,0,4.84-.8,4.84-4.7q0-34.42,0-68.85c0-4-.82-4.82-4.72-4.82H39.71c-4.3,0-5,.72-5,5.12q0,34,0,68c0,4.55.68,5.24,5.16,5.24Zm.1-79.64c.68-.21,1.14-.61,1.06-1.36a1.17,1.17,0,1,0-2.33.23A1.18,1.18,0,0,0,100.12,54.19Z" transform="translate(-21.84 -50.44)"/><path class="cls-2" d="M99.86,149.56H30.14c-4.48,0-7.31-2.32-8.17-6.52-.3-1.45-.19-2.25,1.66-2.25q29.65.08,59.32,0c1.17,0,1.87.24,2.24,1.51.6,2,2.11,2.88,4.27,2.86q10.55-.09,21.09,0c2,0,3.55-.67,4.16-2.62.45-1.44,1.24-1.76,2.65-1.76q29.24.06,58.47,0c2.43,0,2.63.91,2.07,2.85-1.16,4-3.68,6-8,6Z" transform="translate(-21.84 -50.44)"/><path class="cls-3" d="M100,133.84H39.87c-4.48,0-5.16-.69-5.16-5.24q0-34,0-68c0-4.4.69-5.12,5-5.12H160.57c3.9,0,4.72.84,4.72,4.82q0,34.43,0,68.85c0,3.9-.83,4.7-4.84,4.7Z" transform="translate(-21.84 -50.44)"/><path class="cls-3" d="M100.12,54.19a1.18,1.18,0,0,1-1.27-1.13,1.17,1.17,0,1,1,2.33-.23C101.26,53.58,100.8,54,100.12,54.19Z" transform="translate(-21.84 -50.44)"/></svg>