<svg id="Capa_1" data-name="Capa 1" xmlns="http://www.w3.org/2000/svg" viewBox="0 0 157.92 132.46"><defs><style>.cls-1{fill:#fefefe;}</style></defs><path d="M100.08,33.77H169c6.36,0,10,3.58,10,9.94v92.18c0,6.36-3.59,10-9.93,10-16.35,0-32.69,0-49,0-1.39,0-1.7.27-1.29,1.64a32,32,0,0,1,1,5c.12.93.53,1.08,1.34,1.07,3,0,6,0,8.92,0,2.27,0,3.15.89,3.16,3.19s0,4.45,0,6.68a2.55,2.55,0,0,1-2.86,2.85H69.75a2.55,2.55,0,0,1-2.85-2.85q0-3.42,0-6.85c0-2.08.93-3,3-3,3,0,6,0,9.08,0,.81,0,1.21-.14,1.34-1.07a43.6,43.6,0,0,1,1.06-5.3c.29-1.09,0-1.32-1.05-1.31-7.43,0-14.85,0-22.28,0q-13.69,0-27.38,0c-5.92,0-9.62-3.71-9.62-9.64V43.39c0-5.92,3.71-9.62,9.63-9.62Zm-.14,91.7q36.21,0,72.41,0c1.24,0,1.55-.3,1.54-1.54q0-40.11,0-80.22c0-3.56-1.31-4.87-4.89-4.87H31c-3.55,0-4.85,1.32-4.85,4.91q0,40-.05,80.05c0,1.48.44,1.67,1.75,1.67Q63.9,125.44,99.94,125.47Zm0,5.1q-34.37,0-68.74,0c-1.67,0-3.92-.72-4.86.31s-.24,3.12-.24,4.76c0,3.89,1.22,5.11,5.14,5.11H168.76c.42,0,.85,0,1.27,0a3.82,3.82,0,0,0,3.82-3.86c.05-1.54-.08-3.09,0-4.62.1-1.32-.2-1.75-1.67-1.74Q136.1,130.61,100,130.57Zm0,22.92c4.56,0,9.12,0,13.67,0,.84,0,1.12-.15.91-1-.45-1.9-.83-3.82-1.16-5.75-.12-.67-.38-.87-1-.87q-12.33,0-24.65,0c-.74,0-1,.23-1.11,1a52.39,52.39,0,0,1-1.1,5.44c-.33,1.2.13,1.28,1.11,1.27C91.06,153.47,95.51,153.49,100,153.49Zm0,7.64c8.86,0,17.72,0,26.58,0,1,0,1.49,0,1.49-1.29s-.51-1.29-1.49-1.29q-26.58,0-53.16,0c-1,0-1.49,0-1.49,1.29s.51,1.3,1.49,1.29C82.28,161.12,91.14,161.13,100,161.13Z" transform="translate(-21.04 -33.77)"/><path class="cls-1" d="M99.94,125.47q-36,0-72.1,0c-1.31,0-1.75-.19-1.75-1.67q.09-40,.05-80c0-3.59,1.3-4.91,4.85-4.91H169c3.58,0,4.89,1.31,4.89,4.87q0,40.11,0,80.22c0,1.24-.3,1.54-1.54,1.54Q136.14,125.44,99.94,125.47Z" transform="translate(-21.04 -33.77)"/><path class="cls-1" d="M100,130.57q36.12,0,72.24,0c1.47,0,1.77.42,1.67,1.74-.12,1.53,0,3.08,0,4.62a3.82,3.82,0,0,1-3.82,3.86c-.42,0-.85,0-1.27,0H31.28c-3.92,0-5.15-1.22-5.14-5.11,0-1.64-.59-3.85.24-4.76s3.19-.31,4.86-.31Q65.61,130.55,100,130.57Zm0,2.55c-.85,0-1.7,0-2.54,0a2.51,2.51,0,0,0-2.54,2.49,2.47,2.47,0,0,0,2.47,2.56c1.74.07,3.48.07,5.23,0a2.47,2.47,0,0,0,2.46-2.56,2.51,2.51,0,0,0-2.55-2.49C101.69,133.08,100.84,133.12,100,133.12Z" transform="translate(-21.04 -33.77)"/><path class="cls-1" d="M100,153.49c-4.46,0-8.91,0-13.36,0-1,0-1.44-.07-1.11-1.27a52.39,52.39,0,0,0,1.1-5.44c.12-.73.37-1,1.11-1q12.32,0,24.65,0c.65,0,.91.2,1,.87.33,1.93.71,3.85,1.16,5.75.21.9-.07,1.06-.91,1C109.09,153.47,104.53,153.49,100,153.49Z" transform="translate(-21.04 -33.77)"/><path class="cls-1" d="M100,161.13c-8.86,0-17.72,0-26.58,0-1,0-1.5,0-1.49-1.29s.51-1.29,1.49-1.29q26.58,0,53.16,0c1,0,1.5,0,1.49,1.29s-.51,1.3-1.49,1.29C117.72,161.12,108.86,161.13,100,161.13Z" transform="translate(-21.04 -33.77)"/><path d="M100,133.12c.84,0,1.69,0,2.53,0a2.51,2.51,0,0,1,2.55,2.49,2.47,2.47,0,0,1-2.46,2.56c-1.75.07-3.49.07-5.23,0a2.47,2.47,0,0,1-2.47-2.56,2.51,2.51,0,0,1,2.54-2.49C98.3,133.08,99.15,133.12,100,133.12Z" transform="translate(-21.04 -33.77)"/></svg>