<svg id="Capa_1" data-name="Capa 1" xmlns="http://www.w3.org/2000/svg" viewBox="0 0 167.93 167.92"><defs><style>.cls-1{fill:#020202;}.cls-2{fill:#fefefe;}</style></defs><path class="cls-1" d="M184,80.67v46.24c-.6.38-.43,1.07-.56,1.6a24.73,24.73,0,0,1-24.65,19.41c-1.29,0-3.05-.59-3.74.25s-.23,2.48-.23,3.78c0,6.17,0,12.33,0,18.5a14.69,14.69,0,0,1-9.89,13.68c-.94.33-1.92.56-2.88.83H57.36c-.09-.33-.4-.3-.65-.37q-11.46-3.48-11.48-15.44c0-5.9,0-11.79,0-17.69,0-3.56,0-3.56-3.49-3.56H40.43a24.67,24.67,0,0,1-23.48-18c-.29-1-.21-2.14-.91-3V80.34c.6-.39.43-1.08.55-1.61A24.49,24.49,0,0,1,30,61.75c4.37-2.21,9.08-2.62,13.88-2.38,1.07.05,1.35-.26,1.34-1.34q-.07-8.36,0-16.72A24.65,24.65,0,0,1,63,18,15.43,15.43,0,0,0,66.55,17h66.58c.06.26.26.28.49.3a24.38,24.38,0,0,1,20.85,20.72c.69,5.43.16,10.91.3,16.37,0,1.57-.56,3.69.24,4.59s3.07.29,4.68.32a24.69,24.69,0,0,1,23.36,18A13.56,13.56,0,0,0,184,80.67ZM100.07,69.19q-29.59,0-59.19,0a14.68,14.68,0,0,0-15,14.9c-.05,13.06-.09,26.12,0,39.18.05,6.4,3.24,10.95,9.05,13.62,2.81,1.3,5.84,1.16,8.84,1.19,1.11,0,1.48-.21,1.46-1.4-.09-3.93,0-7.87,0-11.8,0-3.1,0-3.1-3-3.23a4.91,4.91,0,0,1-.9-9.73,10.66,10.66,0,0,1,2.12-.1H156.58c.49,0,1,0,1.47,0a4.9,4.9,0,0,1,1.16,9.56,6.17,6.17,0,0,1-2.75.24c-1.31-.14-1.77.19-1.73,1.63.13,3.65,0,7.32,0,11,0,3.82,0,3.82,3.74,3.81,9.34,0,15.61-6.27,15.61-15.62q0-18.69,0-37.38c0-9.7-6.16-15.87-15.84-15.87Zm0,52.47c-14.42,0-28.84,0-43.27,0-1.28,0-1.73.19-1.72,1.63.06,15.41,0,30.81,0,46.22,0,3.7,1.94,5.64,5.65,5.64h78.51q5.7,0,5.7-5.76c0-15.35,0-30.7,0-46.05,0-1.36-.31-1.69-1.68-1.68C128.87,121.68,114.45,121.66,100,121.66Zm0-62.31c14.47,0,28.95,0,43.42,0,1.33,0,1.59-.38,1.57-1.61-.07-5.25,0-10.49,0-15.73,0-8.78-6.43-15.15-15.24-15.16H70.37c-8.91,0-15.27,6.37-15.3,15.25,0,5.19,0,10.38,0,15.57,0,1.36.3,1.69,1.67,1.68C71.12,59.32,85.54,59.35,100,59.35Z" transform="translate(-16.04 -17.04)"/><path class="cls-2" d="M100.07,69.19h58.21c9.68,0,15.84,6.17,15.84,15.87q0,18.69,0,37.38c0,9.35-6.27,15.61-15.61,15.62-3.74,0-3.74,0-3.74-3.81,0-3.66.09-7.33,0-11,0-1.44.42-1.77,1.73-1.63a6.17,6.17,0,0,0,2.75-.24,4.9,4.9,0,0,0-1.16-9.56c-.49,0-1,0-1.47,0H43.44a10.66,10.66,0,0,0-2.12.1,4.91,4.91,0,0,0,.9,9.73c3,.13,3,.13,3,3.23,0,3.93-.06,7.87,0,11.8,0,1.19-.35,1.41-1.46,1.4-3,0-6,.11-8.84-1.19-5.81-2.67-9-7.22-9-13.62-.11-13.06-.07-26.12,0-39.18a14.68,14.68,0,0,1,15-14.9Q70.47,69.16,100.07,69.19ZM50.31,80.34c-2.62,0-5.24,0-7.86,0a4.91,4.91,0,1,0-.09,9.82q7.78.06,15.56,0a4.91,4.91,0,1,0-.07-9.82C55.34,80.31,52.82,80.34,50.31,80.34Z" transform="translate(-16.04 -17.04)"/><path class="cls-2" d="M100,121.66c14.43,0,28.85,0,43.27,0,1.37,0,1.68.32,1.68,1.68-.06,15.35,0,30.7,0,46.05q0,5.76-5.7,5.76H60.72c-3.71,0-5.65-1.94-5.65-5.64,0-15.41,0-30.81,0-46.22,0-1.44.44-1.63,1.72-1.63C71.18,121.68,85.6,121.66,100,121.66Zm0,21h12.45c3.32,0,5.55-2,5.57-4.88s-2.21-5-5.51-5H87.46c-3.28,0-5.52,2-5.5,5s2.25,4.86,5.43,4.87Zm0,21c4.26,0,8.52,0,12.77,0,3,0,5.24-2.06,5.27-4.86s-2.18-5-5.32-5H87.32c-3.15,0-5.37,2.08-5.36,4.94s2.24,4.88,5.41,4.89C91.58,163.65,95.78,163.64,100,163.64Z" transform="translate(-16.04 -17.04)"/><path class="cls-2" d="M100,59.35c-14.43,0-28.85,0-43.27,0-1.37,0-1.69-.32-1.67-1.68.09-5.19,0-10.38,0-15.57,0-8.88,6.39-15.24,15.3-15.25h59.32c8.81,0,15.2,6.38,15.24,15.16,0,5.24,0,10.48,0,15.73,0,1.23-.24,1.62-1.57,1.61C128.92,59.33,114.44,59.35,100,59.35Z" transform="translate(-16.04 -17.04)"/><path class="cls-1" d="M50.31,80.34c2.51,0,5,0,7.54,0a4.91,4.91,0,1,1,.07,9.82q-7.79.06-15.56,0a4.91,4.91,0,1,1,.09-9.82C45.07,80.31,47.69,80.34,50.31,80.34Z" transform="translate(-16.04 -17.04)"/><path class="cls-1" d="M100,142.65H87.39c-3.18,0-5.4-2-5.43-4.87s2.22-5,5.5-5h25.06c3.3,0,5.54,2,5.51,5s-2.25,4.88-5.57,4.88Z" transform="translate(-16.04 -17.04)"/><path class="cls-1" d="M100,163.64c-4.21,0-8.41,0-12.62,0-3.17,0-5.39-2-5.41-4.89s2.21-4.94,5.36-4.94h25.39c3.14,0,5.36,2.1,5.32,5s-2.22,4.84-5.27,4.86C108.51,163.66,104.25,163.64,100,163.64Z" transform="translate(-16.04 -17.04)"/></svg>