<svg id="Capa_1" data-name="Capa 1" xmlns="http://www.w3.org/2000/svg" viewBox="0 0 181.26 156.63"><defs><style>.cls-1{fill:#fff;stroke:#000;stroke-miterlimit:10;stroke-width:5px;}.cls-2{fill:#030303;}.cls-3{fill:#e4e4e4;}.cls-4{fill:#fefefe;}</style></defs><path class="cls-1" d="M151.73,98.57q0,33.56,0,67.11a8.61,8.61,0,0,1-2.44,6.24,7.94,7.94,0,0,1-5.84,2.45H56.68a8.18,8.18,0,0,1-8.17-6.06,7.55,7.55,0,0,1-.25-2.33q0-67.42,0-134.86c0-3.79,1.9-6.33,5.24-7.83a7.17,7.17,0,0,1,2.92-.56q43.59,0,87.18,0a8.36,8.36,0,0,1,8.14,8.46V98.57ZM100,156.79A32.27,32.27,0,1,0,67.73,124,32.38,32.38,0,0,0,100,156.79Zm0-121a20,20,0,1,0,20,20A20,20,0,0,0,100,35.74Z" transform="translate(-9.37 -20.23)"/><path class="cls-2" d="M9.87,92.54,10.11,91l.08-.33.08-.46.07-.33a28.83,28.83,0,0,1,1.88-6.42,40.29,40.29,0,0,1,6-10.54,2.46,2.46,0,0,1,1.38-1.07,2.22,2.22,0,0,1,2.2.64,2.32,2.32,0,0,1,.1,2.32c-.52.76-1.14,1.44-1.64,2.21a35.85,35.85,0,0,0-2.37,3.9c-.48,1-1,2-1.47,3a36.76,36.76,0,0,0-2.52,8.78,40.22,40.22,0,0,0-.28,9.43,38.77,38.77,0,0,0,.64,4,29.65,29.65,0,0,0,1.1,4.29,38.15,38.15,0,0,0,2.51,5.77,40.86,40.86,0,0,0,3.77,5.77,2.22,2.22,0,0,1,.52,1.53,1.73,1.73,0,0,1-1.29,1.83,1.85,1.85,0,0,1-2.26-.57,39.57,39.57,0,0,1-5.07-8,41.56,41.56,0,0,1-3.28-9.54c-.11-.51,0-1-.21-1.53l-.07-.33-.28-2,0-.33-.09-1.25-.06-.64V96l.06-.64.1-1.25,0-.33a2.3,2.3,0,0,0,.11-.94Z" transform="translate(-9.37 -20.23)"/><path class="cls-2" d="M189.64,107.25a52.84,52.84,0,0,1-2.13,7,26.74,26.74,0,0,1-2,4c-.81,1.32-1.52,2.71-2.44,4-.59.8-1.14,1.66-1.8,2.4a2,2,0,1,1-3-2.74,35.17,35.17,0,0,0,7.92-18.44,37.08,37.08,0,0,0-5.87-25.58A30.61,30.61,0,0,0,178.15,75a2.14,2.14,0,0,1,.35-2.92,2.31,2.31,0,0,1,3,.48,44,44,0,0,1,5.34,8.71,42,42,0,0,1,2.88,9c.08.38.17.76.26,1.14l.08.33a1.61,1.61,0,0,0,.1.78l.06.32a2.14,2.14,0,0,0,.11.94.3.3,0,0,0,0,.33l.1,1.25.06.64v4.9l-.07.8-.08,1.1a.62.62,0,0,0,0,.48,2.3,2.3,0,0,0-.12.94l-.07.32-.07.63-.06.32-.1.62-.09.33-.07.46Z" transform="translate(-9.37 -20.23)"/><path class="cls-2" d="M21.42,95.07l.07-.78.07-.33a24.61,24.61,0,0,1,1.86-6.84,30.66,30.66,0,0,1,4.27-7.24,2.24,2.24,0,0,1,3-.34,2.08,2.08,0,0,1,.25,2.85,25.81,25.81,0,0,0-2.18,29.06,22.92,22.92,0,0,0,2.16,3.28,2,2,0,0,1-.36,2.92,1.77,1.77,0,0,1-2.75-.32,28.28,28.28,0,0,1-4.3-7.2,26.38,26.38,0,0,1-1.55-4.75c-.16-.74-.24-1.49-.35-2.24l-.08-.33-.07-.78a1,1,0,0,0-.1-.63,9.9,9.9,0,0,0-.11-1.89l0-1.76a9.34,9.34,0,0,0,.13-2A1,1,0,0,0,21.42,95.07Z" transform="translate(-9.37 -20.23)"/><path class="cls-2" d="M178.77,98a30.68,30.68,0,0,1-3.44,14.37,28.73,28.73,0,0,1-3.17,4.83A2.25,2.25,0,0,1,170,118c-1-.13-1.6-1.71-1.14-2.79a11.73,11.73,0,0,1,1.54-2.22,21.25,21.25,0,0,0,2.64-5A25.68,25.68,0,0,0,170.27,84a16,16,0,0,0-1.21-1.54,2,2,0,0,1,1-3.37,2.11,2.11,0,0,1,2.23.92,33.89,33.89,0,0,1,2,2.81,29.94,29.94,0,0,1,4.24,12.4C178.66,96.34,178.72,97.44,178.77,98Z" transform="translate(-9.37 -20.23)"/><path class="cls-2" d="M166.92,100.61a21.92,21.92,0,0,1-1.58,5.5,23.1,23.1,0,0,1-2.39,3.8,2.27,2.27,0,0,1-2.86.31,2.13,2.13,0,0,1-.24-3,14.64,14.64,0,0,0,2.87-6.19A13.71,13.71,0,0,0,160,90a2.21,2.21,0,0,1-.2-2.73,2.24,2.24,0,0,1,3.54.26,20.51,20.51,0,0,1,3.63,9l0,.32c0,1.16,0,2.32,0,3.48Z" transform="translate(-9.37 -20.23)"/><path class="cls-2" d="M33,100.29V96.81l.05-.32a15.71,15.71,0,0,1,1.09-4.58,17.73,17.73,0,0,1,2.69-4.63,2.19,2.19,0,0,1,2.89-.39,2.1,2.1,0,0,1,.32,2.9,25.61,25.61,0,0,0-1.81,3.08A13.13,13.13,0,0,0,37,99.73a13.67,13.67,0,0,0,3,7.49c.82,1.08.54,2.9-.69,3.32a2,2,0,0,1-2.16-.35,12,12,0,0,1-1.87-2.67,18,18,0,0,1-1.78-4.28c-.17-.87-.29-1.75-.44-2.63Z" transform="translate(-9.37 -20.23)"/><path class="cls-3" d="M21.19,97.75l0,1.76A2,2,0,0,1,21.19,97.75Z" transform="translate(-9.37 -20.23)"/><path class="cls-3" d="M190.43,101.72l.07-.8A.56.56,0,0,1,190.43,101.72Z" transform="translate(-9.37 -20.23)"/><path class="cls-3" d="M190.5,96l-.06-.64A.42.42,0,0,1,190.5,96Z" transform="translate(-9.37 -20.23)"/><path class="cls-3" d="M21.42,95.07a1,1,0,0,1-.1.63A.41.41,0,0,1,21.42,95.07Z" transform="translate(-9.37 -20.23)"/><path class="cls-3" d="M9.55,95.38,9.49,96A.42.42,0,0,1,9.55,95.38Z" transform="translate(-9.37 -20.23)"/><path class="cls-3" d="M9.49,101.08l.06.64A.42.42,0,0,1,9.49,101.08Z" transform="translate(-9.37 -20.23)"/><path class="cls-3" d="M21.32,101.4a1,1,0,0,1,.1.63C21.16,101.86,21.17,101.64,21.32,101.4Z" transform="translate(-9.37 -20.23)"/><path class="cls-3" d="M190.3,103.3a.62.62,0,0,1,0-.48A.31.31,0,0,1,190.3,103.3Z" transform="translate(-9.37 -20.23)"/><path class="cls-3" d="M10.19,90.64l-.08.33A.2.2,0,0,1,10.19,90.64Z" transform="translate(-9.37 -20.23)"/><path class="cls-3" d="M190,91.76l-.08-.33A.2.2,0,0,1,190,91.76Z" transform="translate(-9.37 -20.23)"/><path class="cls-3" d="M9.87,92.54l-.07.32A.19.19,0,0,1,9.87,92.54Z" transform="translate(-9.37 -20.23)"/><path class="cls-3" d="M190.19,92.86l-.06-.32A.2.2,0,0,1,190.19,92.86Z" transform="translate(-9.37 -20.23)"/><path class="cls-3" d="M190.34,94.13a.3.3,0,0,1,0-.33A.23.23,0,0,1,190.34,94.13Z" transform="translate(-9.37 -20.23)"/><path class="cls-3" d="M21.56,94l-.07.33C21.39,94.15,21.41,94,21.56,94Z" transform="translate(-9.37 -20.23)"/><path class="cls-3" d="M9.69,93.8l0,.33A.2.2,0,0,1,9.69,93.8Z" transform="translate(-9.37 -20.23)"/><path class="cls-3" d="M189.64,107.25l.08-.33A.21.21,0,0,1,189.64,107.25Z" transform="translate(-9.37 -20.23)"/><path class="cls-3" d="M190,105.51l.06-.32A.2.2,0,0,1,190,105.51Z" transform="translate(-9.37 -20.23)"/><path class="cls-3" d="M166.92,100.61l.05-.32A.19.19,0,0,1,166.92,100.61Z" transform="translate(-9.37 -20.23)"/><path class="cls-3" d="M189.79,106.46l.09-.33C190,106.27,189.94,106.38,189.79,106.46Z" transform="translate(-9.37 -20.23)"/><path class="cls-3" d="M10,105.34l.07.33A.19.19,0,0,1,10,105.34Z" transform="translate(-9.37 -20.23)"/><path class="cls-3" d="M190.11,104.56l.07-.32C190.29,104.37,190.26,104.48,190.11,104.56Z" transform="translate(-9.37 -20.23)"/><path class="cls-3" d="M9.64,103l0,.33A.21.21,0,0,1,9.64,103Z" transform="translate(-9.37 -20.23)"/><path class="cls-3" d="M21.49,102.81l.08.33A.2.2,0,0,1,21.49,102.81Z" transform="translate(-9.37 -20.23)"/><path class="cls-3" d="M33.06,96.49l-.05.32A.2.2,0,0,1,33.06,96.49Z" transform="translate(-9.37 -20.23)"/><path class="cls-3" d="M167,96.81l0-.32A.2.2,0,0,1,167,96.81Z" transform="translate(-9.37 -20.23)"/><path class="cls-3" d="M10.34,89.85l-.07.33C10.17,90,10.2,89.94,10.34,89.85Z" transform="translate(-9.37 -20.23)"/><path class="cls-3" d="M33,100.29l0,.32A.2.2,0,0,1,33,100.29Z" transform="translate(-9.37 -20.23)"/><path class="cls-4" d="M100,156.79A32.27,32.27,0,1,1,132.26,124,32.37,32.37,0,0,1,100,156.79Zm28.36-32.21A28.36,28.36,0,1,0,100,152.88,28.35,28.35,0,0,0,128.35,124.58Z" transform="translate(-9.37 -20.23)"/><path class="cls-4" d="M100,35.74A20,20,0,1,1,80,55.66,20,20,0,0,1,100,35.74Zm0,36A16.05,16.05,0,1,0,83.94,55.91,16,16,0,0,0,100,71.74Z" transform="translate(-9.37 -20.23)"/><path class="cls-2" d="M128.35,124.58A28.36,28.36,0,1,1,100.1,96.17,28.42,28.42,0,0,1,128.35,124.58ZM100,136.79a12.28,12.28,0,1,0-12.31-12.3A12.36,12.36,0,0,0,100,136.79Z" transform="translate(-9.37 -20.23)"/><path class="cls-2" d="M100,71.74a16.05,16.05,0,1,1,16-16.33A16,16,0,0,1,100,71.74ZM93.14,55.66A6.85,6.85,0,1,0,100,48.81,6.88,6.88,0,0,0,93.14,55.66Z" transform="translate(-9.37 -20.23)"/><path class="cls-4" d="M100,136.79a12.28,12.28,0,1,1,12.28-12.34A12.35,12.35,0,0,1,100,136.79Z" transform="translate(-9.37 -20.23)"/><path class="cls-4" d="M93.14,55.66A6.85,6.85,0,1,1,100,62.57,6.91,6.91,0,0,1,93.14,55.66Z" transform="translate(-9.37 -20.23)"/></svg>