<svg id="Capa_1" data-name="Capa 1" xmlns="http://www.w3.org/2000/svg" viewBox="0 0 153.49 120.38"><defs><style>.cls-1{fill:#020202;}.cls-2{fill:#fefefe;}</style></defs><path class="cls-1" d="M100.15,46.87q32.57,0,65.12,0c4.49,0,8.13,1.45,10.33,5.6a10.71,10.71,0,0,1,1.13,5.12q0,41.37,0,82.73c0,6.12-4.49,10.48-10.64,10.49q-29.47,0-59,0c-1.49,0-1.89.32-1.85,1.83.12,4.22,0,4.14,4.27,4.72,10.43,1.42,20.84,2.92,31.26,4.4,1.86.27,3.27,1.71,3.06,3.07-.23,1.53-2,2.65-4,2.38-5.08-.7-10.14-1.45-15.21-2.17-7.38-1.06-14.73-2.31-22.14-3.06-2.75-.28-5.63.58-8.44,1Q79.2,165,64.34,167.17c-3.32.48-4.25-1.75-3.74-3.49A2.65,2.65,0,0,1,63,161.75c11.55-1.6,23.09-3.26,34.65-4.79,1.82-.24,2.39-.82,2.29-2.68-.18-3.47-.05-3.48-3.59-3.48H34.1c-6.5,0-10.8-4.12-10.81-10.59q-.06-41.37,0-82.73c0-6.09,4-10.15,10-10.57,1.08-.08,2.16,0,3.25,0Zm-.33,98.46h65.8c4,0,5.65-1.63,5.65-5.71V58.09c0-4-1.72-5.75-5.7-5.75q-65.62,0-131.25,0c-3.95,0-5.58,1.66-5.58,5.64v82c0,3.73,1.58,5.31,5.28,5.31Z" transform="translate(-23.26 -46.86)"/><path class="cls-2" d="M99.82,145.33H34c-3.7,0-5.28-1.58-5.28-5.31V58c0-4,1.63-5.64,5.58-5.64q65.63,0,131.25,0c4,0,5.7,1.76,5.7,5.75v81.53c0,4.08-1.62,5.71-5.65,5.71Z" transform="translate(-23.26 -46.86)"/></svg>